<?xml version="1.0" encoding="UTF-8"?>
<svg version="1.1" xmlns="http://www.w3.org/2000/svg" width="512" height="512">
<path d="M0 0 C19.59087924 16.46334424 35.05904156 37.890501 38 64 C38.42486842 72.32945635 38.2611813 80.66731208 38 89 C39.04752441 88.98428955 40.09504883 88.9685791 41.17431641 88.95239258 C45.12915088 88.89733787 49.08395291 88.86338073 53.0390625 88.83520508 C54.73801402 88.82028792 56.43692821 88.79994685 58.13574219 88.77368164 C76.56186519 88.49631084 92.69677434 90.24855842 106.671875 103.4765625 C115.61167975 113.16635086 119.76530807 124.30747469 120.40533447 137.32644653 C120.47020302 138.60944767 120.53507156 139.89244881 120.60190582 141.21432877 C120.66990622 142.63523223 120.73782264 144.05613972 120.80566406 145.47705078 C120.88048058 146.98714563 120.95561098 148.49722495 121.03102875 150.00728989 C121.23700497 154.15226438 121.43812249 158.29746227 121.63830853 162.44271994 C121.81007668 165.98771855 121.98455569 169.53258173 122.15902066 173.07744849 C122.73125929 184.7069788 123.29391784 196.33696405 123.85393143 207.9670887 C123.99951366 210.98990178 124.14528865 214.01270551 124.29110718 217.0355072 C125.4917913 241.9331858 126.67747801 266.83155479 127.84845734 291.73064804 C127.94795848 293.84631112 128.04746359 295.96197401 128.14697266 298.07763672 C128.19633201 299.1270734 128.24569137 300.17651009 128.29654646 301.25774789 C128.70502854 309.93532305 129.11765701 318.61269806 129.53096175 327.29004467 C129.93741832 335.82845896 130.34061482 344.36702344 130.74138474 352.90570652 C130.97737419 357.93205863 131.21466461 362.95834018 131.45549774 367.98446274 C131.67924736 372.65562361 131.89890477 377.32695995 132.11556053 381.99845505 C132.19471807 383.69066711 132.27527279 385.3828146 132.3574543 387.07488251 C132.77102924 395.6074102 133.08202912 404.13429835 133.14923096 412.67727661 C133.15998303 413.40164095 133.17073511 414.12600528 133.181813 414.87232006 C133.20105727 425.81080846 129.81778199 435.43054606 123 444 C122.56042969 444.61230469 122.12085938 445.22460938 121.66796875 445.85546875 C114.84390194 454.76412081 104.61129048 459.25647962 94 462 C89.68741295 462.51927704 85.43677011 462.54191355 81.09667969 462.50793457 C79.85349346 462.51417453 78.61030724 462.5204145 77.3294487 462.52684355 C73.91333385 462.53994601 70.49811104 462.53535638 67.08205223 462.52289867 C63.38462785 462.51379186 59.68727749 462.52784561 55.98986816 462.53881836 C48.76037118 462.55654851 41.53104087 462.55278827 34.30153751 462.5411678 C28.42281292 462.53211198 22.54413485 462.53091874 16.66540527 462.53526306 C15.40747638 462.53618246 15.40747638 462.53618246 14.12413478 462.53712043 C12.42017395 462.53839941 10.71621313 462.53969627 9.01225233 462.5410108 C-6.94313238 462.55240047 -22.89842497 462.53932826 -38.85379457 462.51780933 C-52.52627374 462.49993981 -66.19861703 462.50304437 -79.87109375 462.52148438 C-95.7717398 462.54291964 -111.67230523 462.55130198 -127.57296371 462.53903532 C-129.27044422 462.5377612 -130.96792474 462.53650372 -132.66540527 462.53526306 C-133.5004664 462.53464596 -134.33552752 462.53402886 -135.19589353 462.53339306 C-141.06343611 462.52994812 -146.93092729 462.53574998 -152.79846191 462.54518127 C-159.95495916 462.55643221 -167.11128105 462.55329647 -174.26775837 462.5320583 C-177.91490637 462.52158928 -181.56176264 462.51735447 -185.20890808 462.53065491 C-189.17166142 462.5448871 -193.13394334 462.52782485 -197.09667969 462.50793457 C-198.23638844 462.51685746 -199.37609718 462.52578034 -200.55034256 462.53497362 C-213.76970086 462.40675595 -225.51246254 457.87422382 -235.2890625 448.8984375 C-244.68769965 438.93658613 -249.2545538 426.83442701 -249.14207458 413.20559692 C-249.13660068 412.04110384 -249.13660068 412.04110384 -249.13101619 410.85308564 C-249.029142 399.79589698 -248.44497635 388.7534422 -247.91430664 377.71044922 C-247.79734639 375.21163577 -247.6807543 372.71280508 -247.5644989 370.21395874 C-247.28258855 364.17498285 -246.99682755 358.13620071 -246.70923907 352.09749351 C-246.3735001 345.04380848 -246.0423944 337.9899081 -245.71147233 330.93599571 C-245.12037114 318.33916776 -244.52534754 305.74252825 -243.92797852 293.14599609 C-243.35017257 280.96187338 -242.77483089 268.77763783 -242.20239258 256.59326172 C-242.16711403 255.84236632 -242.13183549 255.09147093 -242.0954879 254.31782113 C-242.02440479 252.80479037 -241.95332218 251.29175959 -241.88224008 249.77872879 C-241.84716387 249.03211036 -241.81208765 248.28549193 -241.77594852 247.5162487 C-241.72345681 246.39889268 -241.72345681 246.39889268 -241.66990465 245.25896382 C-241.121666 233.59069952 -240.57148166 221.92252686 -240.02097462 210.2543694 C-239.8553644 206.74404668 -239.68984682 203.23371964 -239.52454305 199.72338247 C-239.1477417 191.7219252 -238.76978343 183.72052448 -238.389925 175.71921158 C-238.27543508 173.30387569 -238.16134815 170.88852066 -238.04771042 168.47314453 C-237.71074818 161.31479287 -237.36614385 154.1569234 -237 147 C-236.95745362 146.1680683 -236.91490724 145.3361366 -236.87107158 144.47899485 C-236.7541941 142.25319245 -236.630076 140.02795825 -236.50218201 137.80276489 C-236.43483573 136.61178759 -236.36748945 135.42081028 -236.29810238 134.19374275 C-235.03093557 120.61785379 -228.9752428 109.19567837 -219 100 C-208.00644312 91.72375201 -195.7584511 88.81198935 -182.22265625 88.90234375 C-181.41130722 88.9037587 -180.59995819 88.90517365 -179.76402283 88.90663147 C-177.19680953 88.91218643 -174.62968652 88.92473033 -172.0625 88.9375 C-170.31185023 88.94252083 -168.56119907 88.94708271 -166.81054688 88.95117188 C-162.5403303 88.96214107 -158.27018041 88.97937418 -154 89 C-154.0314209 87.99755249 -154.0314209 87.99755249 -154.06347656 86.97485352 C-154.85923031 57.62010201 -148.96281553 33.37075035 -128.3359375 11.37109375 C-94.61920639 -22.8530798 -39.12763276 -29.61944513 0 0 Z M-100 30 C-100.71671875 30.60457031 -101.4334375 31.20914063 -102.171875 31.83203125 C-115.55523146 44.15198148 -120.75150751 60.38968489 -122 78 C-122 81.63 -122 85.26 -122 89 C-79.76 89 -37.52 89 6 89 C6 67.47917408 3.30824279 51.71405353 -11 35 C-11.55300781 34.33484375 -12.10601562 33.6696875 -12.67578125 32.984375 C-24.0584218 20.44369906 -40.43537534 15.04789695 -56.86425781 14.06347656 C-73.0312321 13.58297664 -87.79455324 19.66474266 -100 30 Z M-197.75 126.25 C-202.57447771 132.14658387 -203.48890204 137.0808319 -203.7668457 144.44580078 C-203.81492308 145.42494823 -203.86300045 146.40409569 -203.91253471 147.41291428 C-204.07552587 150.79824023 -204.21902161 154.18413986 -204.36328125 157.5703125 C-204.4806767 160.08682162 -204.59941203 162.60326851 -204.71931458 165.11965942 C-204.95911661 170.17983355 -205.19288751 175.24024249 -205.4211244 180.30095136 C-205.97956992 192.68332609 -206.57522601 205.06382279 -207.17333984 217.44433594 C-208.18019133 238.31581377 -209.17282391 259.1879352 -210.15757561 280.06046677 C-210.27130955 282.47113803 -210.38504411 284.88180926 -210.4987793 287.29248047 C-210.58348596 289.08813064 -210.58348596 289.08813064 -210.66990387 290.92005658 C-211.13379389 300.74890884 -211.60082335 310.57761027 -212.06845397 320.40628517 C-212.52487691 330.00237229 -212.97912155 339.59856094 -213.43168145 349.19483101 C-213.69971135 354.87744741 -213.96860005 360.56001977 -214.23973656 366.24248886 C-214.49261445 371.54374936 -214.74277131 376.84513144 -214.99086571 382.14661789 C-215.08179675 384.07996714 -215.17368008 386.01327189 -215.26662064 387.94652557 C-217.68971422 407.39915464 -217.68971422 407.39915464 -212 425 C-206.89518386 429.23591127 -202.41873813 430.12334499 -195.93774605 430.12863445 C-194.93585656 430.1318589 -193.93396708 430.13508335 -192.90171731 430.1384055 C-191.80824514 430.1368569 -190.71477297 430.1353083 -189.58816528 430.13371277 C-188.42093614 430.13597833 -187.25370701 430.13824388 -186.05110729 430.14057809 C-182.81505756 430.14581302 -179.57904278 430.14656302 -176.34299016 430.14538372 C-172.85142828 430.1451796 -169.35987467 430.1506995 -165.86831665 430.15544128 C-159.02928462 430.16374585 -152.19026121 430.16649603 -145.35122456 430.16705366 C-139.79219162 430.16752889 -134.23316152 430.16958397 -128.67412949 430.17275429 C-112.9125953 430.18156013 -97.15106793 430.18617374 -81.38953127 430.18542381 C-80.11510929 430.18536388 -80.11510929 430.18536388 -78.81494141 430.18530273 C-77.96428926 430.18526185 -77.11363712 430.18522097 -76.23720764 430.18517885 C-62.4491418 430.18477234 -48.66110327 430.19434328 -34.87304534 430.2084411 C-20.71492593 430.22280306 -6.55681984 430.22971139 7.60130703 430.22884732 C15.54977708 430.22851531 23.49821849 430.2312646 31.44668198 430.24202538 C38.21367291 430.25112797 44.98062223 430.25330759 51.74761663 430.24651595 C55.19960193 430.2432496 58.65150739 430.2431982 62.10348511 430.2518692 C65.84712777 430.25956329 69.59056 430.25496124 73.334198 430.24723816 C74.42320872 430.25238172 75.51221945 430.25752529 76.63423049 430.26282471 C86.36060307 430.22798142 86.36060307 430.22798142 94.75 425.75 C102.35547463 416.4544199 100.10213485 405.32635513 99.55116272 393.93913269 C99.50286566 392.89407368 99.45456859 391.84901466 99.40480798 390.77228719 C99.24396394 387.30663926 99.07914501 383.84119248 98.91430664 380.37573242 C98.79746762 377.8761758 98.6808715 375.3766078 98.5644989 372.87702942 C98.28155129 366.81355491 97.99601211 360.75020758 97.70923907 354.68691321 C97.37465086 347.6103482 97.04301346 340.53364579 96.71147233 333.45693747 C96.11928948 320.81908262 95.52439225 308.181357 94.92797852 295.54370117 C94.350711 283.31170154 93.77544696 271.07960985 93.20239258 258.84741211 C93.16711403 258.09437497 93.13183549 257.34133783 93.0954879 256.56548139 C93.0602674 255.81368194 93.02504689 255.06188249 92.9887591 254.28730124 C92.33442267 240.32057037 91.67812922 226.35393202 91.02097462 212.38733348 C90.78955769 207.46801814 90.55872267 202.5486757 90.32808113 197.62932396 C90.01682602 190.99143468 89.70390846 184.35362505 89.389925 177.71586418 C89.27534537 175.28882958 89.16125598 172.86177177 89.04771042 170.43468857 C88.75415294 164.16336673 88.45037154 157.89276742 88.12914205 151.62280059 C88.00954994 149.19395384 87.90676419 146.76499566 87.80801201 144.33522987 C87.7431671 142.99402942 87.67773769 141.65285701 87.61155701 140.3117218 C87.56451346 139.21484197 87.51746992 138.11796213 87.46900082 136.98784351 C86.41353659 130.26384253 83.19944118 126.87192428 78 123 C75.65086122 121.82543061 74.26907635 121.87367878 71.65047169 121.87136555 C70.27154923 121.86652888 70.27154923 121.86652888 68.86476976 121.8615945 C67.33985501 121.8639174 67.33985501 121.8639174 65.78413391 121.86628723 C64.7093062 121.86402167 63.63447849 121.86175612 62.52708024 121.85942191 C58.90126217 121.85305786 55.27548126 121.85391282 51.6496582 121.85473633 C49.05976818 121.85174628 46.46987861 121.84834411 43.87998962 121.84455872 C37.55991613 121.83624 31.23985195 121.83350329 24.91977344 121.83294634 C19.78210273 121.8324716 14.6444351 121.83041898 9.50676537 121.82724571 C-5.05506776 121.81843457 -19.61689351 121.81382687 -34.17872932 121.81457619 C-35.35712476 121.81463612 -35.35712476 121.81463612 -36.55932617 121.81469727 C-37.73915886 121.81475859 -37.73915886 121.81475859 -38.94282655 121.81482115 C-51.6835068 121.81522739 -64.42415746 121.80566449 -77.16482916 121.7915589 C-90.2425619 121.77719432 -103.32028021 121.77028881 -116.39802104 121.77115268 C-123.74179222 121.77148469 -131.08553242 121.76873568 -138.42929649 121.75797462 C-145.33783605 121.74791644 -152.24630914 121.7482059 -159.15485191 121.75549126 C-161.69169205 121.75653875 -164.22853624 121.75416448 -166.76536942 121.7481308 C-170.22672894 121.74043112 -173.68786118 121.74504252 -177.1492157 121.75276184 C-178.65740003 121.7450465 -178.65740003 121.7450465 -180.19605273 121.73717529 C-186.80277534 121.76976383 -192.4457508 121.91015974 -197.75 126.25 Z " fill="#000000" transform="translate(314,34)"/>
<path d="M0 0 C6.81091462 4.54060975 8.86886291 10.03943503 11.1875 17.5625 C17.16803811 35.60359971 27.68508532 48.15009346 44.8125 56.875 C61.14287787 63.50321219 79.46596554 64.46428474 95.890625 57.5859375 C112.81900887 49.6321491 123.8823932 37.06200006 130.8125 19.875 C131.92280151 16.44381017 132.91246741 12.99673085 133.89453125 9.52734375 C135.56583657 4.69833818 138.48603606 2.72983232 142.625 0.0625 C148.22094351 -2.02226327 152.68777302 -1.88765753 158.0625 0.5 C162.5575645 3.04337638 164.89775632 5.91619945 166.4453125 10.921875 C169.09680576 25.28814755 159.2515678 42.48186968 151.68359375 54.16015625 C136.57382723 75.10840143 115.10495018 89.59272008 89.64794922 94.27294922 C62.67102443 98.63749366 36.64306937 93.27549374 13.9453125 77.9375 C11.44566243 76.02083541 9.12684324 74.01160773 6.8125 71.875 C5.35070312 70.55048828 5.35070312 70.55048828 3.859375 69.19921875 C-10.60969942 55.67650618 -23.27019715 35.36881086 -24.390625 15.22265625 C-24.11423565 10.66754723 -22.8164562 7.57322585 -20.1875 3.875 C-13.93173451 -1.10407866 -7.5983893 -2.68178446 0 0 Z " fill="#000000" transform="translate(185.1875,190.125)"/>
</svg>
